<svg width="34" height="42" viewBox="0 0 34 42" fill="none" xmlns="http://www.w3.org/2000/svg">
<path d="M23.1862 6.64048C24.6034 4.86782 25.5652 2.48766 25.3115 0.0554199C23.2369 0.15858 20.7052 1.42413 19.2394 3.19818C17.9234 4.71738 16.7585 7.1972 17.0622 9.52748C19.3911 9.72949 21.7178 8.3634 23.1862 6.64048Z" fill="white"/>
<path d="M25.2851 9.98249C21.903 9.78103 19.0273 11.902 17.4122 11.902C15.7962 11.902 13.3229 10.084 10.6478 10.133C7.16605 10.1841 3.93538 12.1528 2.16853 15.2838C-1.46558 21.5474 1.20949 30.8385 4.74346 35.9399C6.45964 38.4637 8.52793 41.2425 11.2532 41.1427C13.8282 41.0417 14.8374 39.4754 17.9674 39.4754C21.095 39.4754 22.0042 41.1427 24.7299 41.0922C27.5566 41.0417 29.3237 38.5672 31.0399 36.0409C33.0087 33.1639 33.8146 30.3859 33.8653 30.2334C33.8146 30.1829 28.4147 28.1114 28.3646 21.8998C28.3137 16.6988 32.6042 14.2249 32.8061 14.0715C30.3832 10.4881 26.5975 10.084 25.2851 9.98249Z" fill="white"/>
</svg>
